<svg width="12" height="12" viewBox="0 0 12 12" fill="none" xmlns="http://www.w3.org/2000/svg">
<path d="M2.68621 11.9999H0.19813V3.98819H2.68621V11.9999ZM1.44084 2.89483C1.1545 2.89618 0.8742 2.81259 0.635376 2.65463C0.396552 2.49667 0.209935 2.27144 0.0991254 2.00741C-0.0116838 1.74338 -0.0417076 1.45243 0.0128512 1.17134C0.06741 0.890247 0.204101 0.63165 0.405636 0.428249C0.607172 0.224849 0.864499 0.0857817 1.14507 0.0286359C1.42565 -0.0285099 1.71687 -0.00116751 1.98191 0.107205C2.24694 0.215577 2.47389 0.400112 2.63404 0.637471C2.79419 0.87483 2.88036 1.15435 2.88164 1.44068C2.88196 1.82414 2.73068 2.19217 2.46079 2.46456C2.1909 2.73695 1.82428 2.89161 1.44084 2.89483V2.89483ZM11.9977 11.9999H9.515V8.09994C9.515 7.17039 9.49633 5.97835 8.21972 5.97835C6.92444 5.97835 6.72786 6.98829 6.72786 8.03289V11.9999H4.24474V3.98819H6.63072V5.08118H6.66691C6.90532 4.67245 7.25019 4.33609 7.66476 4.10798C8.07932 3.87987 8.54802 3.76855 9.02089 3.7859C11.5387 3.7859 12.0016 5.44386 12.0016 7.59745V11.9999H11.9977Z" fill="#3B3B38"/>
</svg>
